<svg width="51" height="33" viewBox="0 0 51 33" fill="none" xmlns="http://www.w3.org/2000/svg">
<g clip-path="url(#clip0_82_2671)">
<path fill-rule="evenodd" clip-rule="evenodd" d="M25.0689 2.08252V2.42913H25.6007H26.1325V2.9525V3.47587L25.3622 3.52456C21.6629 3.75834 18.2454 4.96105 15.9031 6.85343C15.2249 7.40139 14.7882 7.84741 14.2837 8.50747C13.2907 9.80654 12.8093 11.1784 12.8073 12.7152L12.8066 13.1944L26.7112 13.1841L40.6157 13.1739L40.6331 12.5897C40.6429 12.2609 40.6264 12.0152 40.5955 12.0277C40.5652 12.0399 40.523 11.8763 40.5016 11.6643C40.3756 10.4136 39.4467 8.68668 38.2979 7.56703C35.9296 5.25905 32.1918 3.78766 28.0289 3.52456L27.2586 3.47587V2.9525V2.42913H27.7904H28.3222V2.08252V1.73592H26.6955H25.0689V2.08252ZM25.1627 4.23004C22.3689 4.43581 19.5068 5.37298 17.4901 6.7424C15.3044 8.22664 14.1246 9.98649 13.896 12.1035L13.8531 12.501H26.6955H39.538L39.4951 12.1035C39.2665 9.98649 38.0867 8.22664 35.9009 6.7424C33.8481 5.34844 31.0098 4.43022 28.1213 4.22556C27.4094 4.17516 25.8769 4.17748 25.1627 4.23004ZM25.6632 4.9025C23.0056 5.10846 21.0695 5.63391 19.1724 6.66406C18.9057 6.80886 18.6875 6.93882 18.6875 6.95285C18.6875 6.96683 18.8494 7.08264 19.0473 7.21015L19.407 7.44197L19.8136 7.21586C21.0095 6.55091 22.5566 6.03328 24.1192 5.77537C24.7075 5.67828 25.8907 5.56896 26.3536 5.56896H26.6955V5.22235V4.87575L26.2732 4.88187C26.0409 4.88521 25.7665 4.89451 25.6632 4.9025ZM17.6134 7.68222C17.1637 8.04644 16.9174 8.28948 16.9565 8.3307C16.9763 8.35158 17.1678 8.43917 17.3822 8.52537L17.7717 8.68212L17.9325 8.54445C18.0209 8.46877 18.2273 8.2971 18.3912 8.16303L18.6892 7.91926L18.5164 7.80052C18.4213 7.73523 18.2435 7.62983 18.1213 7.5663L17.8993 7.45077L17.6134 7.68222ZM12.8315 12.6234C12.8315 12.9486 12.8412 13.0816 12.8531 12.919C12.8649 12.7564 12.8649 12.4904 12.8531 12.3277C12.8412 12.1651 12.8315 12.2982 12.8315 12.6234Z" fill="white"/>
</g>
<g clip-path="url(#clip1_82_2671)">
<path d="M42.2669 4.31258L41.0461 3.75393L40.6782 2.46239C40.6565 2.38591 40.6117 2.31795 40.5501 2.26768C40.4885 2.21742 40.4129 2.18726 40.3336 2.18129C40.2544 2.17531 40.1751 2.1938 40.1067 2.23427C40.0382 2.27473 39.9838 2.33522 39.9508 2.40757L39.3906 3.62918L38.0991 3.99704C38.0226 4.01882 37.9547 4.06354 37.9044 4.12516C37.8541 4.18678 37.824 4.26234 37.818 4.34164C37.812 4.42093 37.8305 4.50016 37.871 4.56861C37.9114 4.63707 37.9719 4.69147 38.0443 4.72447L39.2659 5.28465L39.6337 6.57619C39.6555 6.65267 39.7002 6.72063 39.7619 6.7709C39.8235 6.82116 39.899 6.85132 39.9783 6.85729C40.0576 6.86327 40.1369 6.84478 40.2053 6.80431C40.2738 6.76385 40.3282 6.70336 40.3612 6.63101L40.9214 5.4094L42.2129 5.04154C42.2894 5.01976 42.3573 4.97504 42.4076 4.91342C42.4579 4.8518 42.488 4.77624 42.494 4.69694C42.5 4.61765 42.4815 4.53842 42.441 4.46997C42.4006 4.40151 42.3401 4.34711 42.2677 4.31411L42.2669 4.31258ZM40.7275 5.05741C40.7004 5.06516 40.6752 5.07872 40.6538 5.09714C40.6323 5.11556 40.6152 5.13841 40.6034 5.16411L40.0095 6.46324L39.6179 5.09082C39.6102 5.06337 39.5965 5.03795 39.5779 5.01633C39.5594 4.99471 39.5363 4.97742 39.5103 4.96568L38.212 4.3728L39.5845 3.98117C39.6119 3.97346 39.6373 3.95983 39.659 3.94124C39.6806 3.92265 39.6979 3.89955 39.7096 3.87357L40.3025 2.57534L40.6941 3.94776C40.7019 3.97493 40.7154 4.0001 40.7338 4.02152C40.7523 4.04294 40.7751 4.06012 40.8008 4.07185L42.0999 4.66578L40.7275 5.05741ZM41.1258 2.04611C41.1297 1.99446 41.154 1.94647 41.1933 1.9127C41.2325 1.87892 41.2836 1.86214 41.3353 1.86603L41.7248 1.89538L41.7541 1.50586C41.758 1.45421 41.7823 1.40622 41.8216 1.37244C41.8608 1.33867 41.9119 1.32189 41.9636 1.32578C42.0152 1.32967 42.0632 1.35392 42.097 1.3932C42.1308 1.43248 42.1476 1.48356 42.1437 1.53521L42.1143 1.92474L42.5038 1.95409C42.5555 1.95798 42.6035 1.98223 42.6372 2.02151C42.671 2.06079 42.6878 2.11187 42.6839 2.16352C42.68 2.21518 42.6558 2.26317 42.6165 2.29694C42.5772 2.33071 42.5261 2.3475 42.4745 2.34361L42.085 2.31426L42.0556 2.70378C42.0517 2.75543 42.0275 2.80342 41.9882 2.83719C41.9489 2.87097 41.8978 2.88775 41.8462 2.88386C41.7945 2.87997 41.7465 2.85572 41.7127 2.81644C41.679 2.77716 41.6622 2.72608 41.6661 2.67442L41.6954 2.2849L41.3059 2.25555C41.2543 2.25166 41.2063 2.2274 41.1725 2.18813C41.1387 2.14885 41.1219 2.09777 41.1258 2.04611ZM43.5697 3.40547C43.5658 3.45712 43.5415 3.50511 43.5022 3.53889C43.463 3.57266 43.4119 3.58945 43.3602 3.58555L43.1655 3.57088L43.1508 3.76564C43.1469 3.81729 43.1226 3.86528 43.0834 3.89905C43.0441 3.93283 42.993 3.94961 42.9413 3.94572C42.8897 3.94183 42.8417 3.91758 42.8079 3.8783C42.7742 3.83902 42.7574 3.78794 42.7613 3.73628L42.7759 3.54152L42.5812 3.52685C42.5295 3.52295 42.4815 3.4987 42.4478 3.45943C42.414 3.42015 42.3972 3.36906 42.4011 3.31741C42.405 3.26576 42.4292 3.21776 42.4685 3.18399C42.5078 3.15022 42.5589 3.13343 42.6105 3.13733L42.8053 3.152L42.82 2.95724C42.8239 2.90559 42.8481 2.8576 42.8874 2.82382C42.9267 2.79005 42.9778 2.77327 43.0294 2.77716C43.0811 2.78105 43.129 2.8053 43.1628 2.84458C43.1966 2.88386 43.2134 2.93494 43.2095 2.9866L43.1948 3.18136L43.3896 3.19603C43.4412 3.19992 43.4892 3.22418 43.523 3.26345C43.5568 3.30273 43.5735 3.35382 43.5697 3.40547Z" fill="white"/>
</g>
<path fill-rule="evenodd" clip-rule="evenodd" d="M45.5464 15.185H48.1923V27.7104H45.5464V15.185ZM46.6357 16.251H47.103V26.6444H46.6357V16.251Z" fill="white"/>
<path fill-rule="evenodd" clip-rule="evenodd" d="M38.2075 15.185H39.9057C41.1991 15.185 42.3583 15.5236 43.2158 16.3476C44.0864 17.1749 44.4502 18.3017 44.4502 19.563C44.4502 20.3514 44.2531 21.0943 43.853 21.7698C43.4675 22.4366 42.9322 22.9724 42.2594 23.3625L42.253 23.3663L42.2464 23.37C42.1709 23.4124 42.0945 23.4524 42.0174 23.4901L46.1079 27.7104H42.4981L40.8392 26.0084V27.7104H38.2075V22.6574L37.3853 21.8091H38.2075V15.185ZM39.2968 26.6444H39.7499V23.3462L42.9644 26.6444H43.5733L39.9199 22.8751H40.019C40.1013 22.8751 40.1826 22.8725 40.263 22.8674C40.3043 22.8647 40.3453 22.8614 40.3861 22.8574C40.5025 22.846 40.6169 22.829 40.7293 22.8066C40.8976 22.7729 41.0615 22.7269 41.2209 22.6684C41.3849 22.6082 41.5442 22.5349 41.6987 22.4485C41.7005 22.4475 41.7023 22.4465 41.7041 22.4455C42.2086 22.1529 42.6068 21.7563 42.8986 21.2556C42.8993 21.2545 42.8999 21.2534 42.9006 21.2523C42.903 21.2482 42.9054 21.244 42.9078 21.2398C43.2076 20.7356 43.3586 20.1813 43.3609 19.5769C43.3609 19.5723 43.3609 19.5677 43.3609 19.563C43.3609 18.5006 43.0588 17.683 42.4546 17.1102C42.4532 17.1089 42.4518 17.1075 42.4504 17.1062C42.4495 17.1052 42.4485 17.1043 42.4475 17.1033C41.9427 16.6208 41.2556 16.3432 40.3861 16.2704C40.2405 16.2582 40.0898 16.2518 39.934 16.2511C39.9246 16.251 39.9152 16.251 39.9057 16.251H39.2968V26.6444ZM39.7499 22.4732H40.0048C40.0095 22.4732 40.0143 22.4732 40.019 22.4732C40.1403 22.4727 40.2593 22.4655 40.3758 22.4518C40.3781 22.4516 40.3804 22.4513 40.3827 22.451C40.3838 22.4509 40.385 22.4507 40.3861 22.4506C40.5414 22.4318 40.6925 22.4012 40.8392 22.3589C40.8604 22.3528 40.8815 22.3465 40.9025 22.3399C41.1022 22.2771 41.2939 22.1922 41.4775 22.0852C41.4796 22.084 41.4817 22.0828 41.4837 22.0816C41.4855 22.0806 41.4872 22.0796 41.4889 22.0785C41.9272 21.8206 42.2727 21.4764 42.5254 21.0458C42.5279 21.0416 42.5303 21.0373 42.5328 21.033C42.5337 21.0313 42.5347 21.0296 42.5356 21.028C42.7837 20.5892 42.9078 20.1055 42.9078 19.5769C42.9078 19.5723 42.9078 19.5677 42.9078 19.563C42.9052 18.6439 42.6497 17.9319 42.141 17.427C42.1402 17.4262 42.1394 17.4254 42.1385 17.4245C42.1354 17.4214 42.1322 17.4182 42.1289 17.4151C41.7945 17.0817 41.3646 16.8577 40.8392 16.7431C40.6953 16.7117 40.5443 16.6885 40.3861 16.6735C40.2414 16.6598 40.0907 16.6529 39.934 16.6529H39.7499V22.4732ZM40.8392 21.2138C40.8665 21.1997 40.8934 21.1849 40.92 21.1694C41.2032 21.0043 41.4178 20.7911 41.5784 20.5191C41.7351 20.2448 41.8185 19.9379 41.8185 19.5769C41.8185 18.8385 41.6178 18.4224 41.3587 18.1688L41.3552 18.1654L41.3517 18.1619C41.2292 18.0398 41.0654 17.9299 40.8392 17.85V21.2138Z" fill="white"/>
<path fill-rule="evenodd" clip-rule="evenodd" d="M25.4121 24.6667L25.4086 24.6607C24.8259 23.6518 24.5312 22.5613 24.5312 21.4062C24.5312 20.2552 24.8334 19.1732 25.431 18.1792C26.0236 17.1842 26.8302 16.3884 27.8395 15.8059C28.8575 15.2091 29.9703 14.9079 31.1574 14.9079C32.3495 14.9079 33.4633 15.2022 34.4761 15.7925C35.4777 16.3762 36.2751 17.1735 36.8577 18.169C37.4549 19.1637 37.7553 20.2493 37.7553 21.4062C37.7553 22.5866 37.457 23.6938 36.8604 24.708C36.2768 25.7069 35.4741 26.5088 34.4651 27.1012L34.462 27.103C33.4491 27.6933 32.3354 27.9876 31.1433 27.9876C29.9506 27.9876 28.8338 27.6789 27.8139 27.069C26.8104 26.4689 26.007 25.6664 25.4156 24.6727L25.4121 24.6667ZM35.8997 24.2046C35.905 24.1957 35.9102 24.1867 35.9155 24.1778C36.4112 23.3357 36.6613 22.4211 36.6659 21.4339C36.666 21.4247 36.666 21.4154 36.666 21.4062C36.666 20.4361 36.4158 19.5354 35.9155 18.7039C35.9134 18.7004 35.9114 18.6969 35.9094 18.6935C35.419 17.8577 34.7555 17.196 33.9188 16.7084C33.9148 16.7061 33.9108 16.7037 33.9069 16.7014C33.9057 16.7008 33.9046 16.7001 33.9035 16.6995C33.0674 16.2158 32.1521 15.9739 31.1574 15.9739C30.1705 15.9739 29.2537 16.2212 28.4071 16.7157C28.4061 16.7164 28.405 16.717 28.4039 16.7176C28.4013 16.7192 28.3987 16.7207 28.3961 16.7222C27.5546 17.2072 26.8844 17.8643 26.3855 18.6937C26.3848 18.6948 26.3842 18.6959 26.3835 18.697C26.3793 18.7039 26.3752 18.7108 26.3711 18.7178C25.8707 19.5492 25.6205 20.4454 25.6205 21.4062C25.6205 21.4154 25.6206 21.4247 25.6206 21.4339C25.6252 22.3936 25.8707 23.2943 26.3569 24.1362C26.368 24.1549 26.3793 24.1735 26.3906 24.1921C26.3916 24.1938 26.3927 24.1955 26.3937 24.1972C26.8902 25.0096 27.5529 25.6637 28.3819 26.1594C28.3921 26.1656 28.4024 26.1716 28.4127 26.1777C28.4137 26.1783 28.4147 26.1789 28.4157 26.1795C29.256 26.6742 30.1652 26.9216 31.1433 26.9216C32.1354 26.9216 33.0487 26.681 33.8831 26.1996C33.8842 26.199 33.8853 26.1984 33.8864 26.1977C33.8925 26.1942 33.8985 26.1907 33.9046 26.1871C34.7447 25.6939 35.4095 25.0335 35.8988 24.206C35.8991 24.2056 35.8994 24.2051 35.8997 24.2046ZM26.7325 23.9221C26.7334 23.9237 26.7343 23.9253 26.7352 23.9269C26.7459 23.9459 26.7567 23.9648 26.7676 23.9837C27.2241 24.7496 27.8324 25.3625 28.5923 25.8225C28.6024 25.8286 28.6125 25.8347 28.6226 25.8407C29.3968 26.2934 30.237 26.5197 31.1433 26.5197C32.0496 26.5197 32.8898 26.2934 33.6639 25.8407C33.6708 25.8366 33.6777 25.8324 33.6846 25.8283C33.685 25.828 33.6854 25.8278 33.6858 25.8276C34.4496 25.3671 35.0559 24.7524 35.5048 23.9837C35.5101 23.9748 35.5153 23.9659 35.5205 23.9569C35.5208 23.9564 35.521 23.956 35.5213 23.9555C35.9729 23.1781 36.1987 22.3376 36.1987 21.4339C36.1987 21.4247 36.1987 21.4154 36.1986 21.4062C36.1941 20.5174 35.9705 19.691 35.5279 18.9272C35.527 18.9256 35.526 18.9239 35.525 18.9222C35.523 18.9187 35.521 18.9153 35.519 18.9118C35.0689 18.141 34.4605 17.5298 33.6939 17.078C33.6886 17.0749 33.6833 17.0718 33.6781 17.0687C32.9039 16.6067 32.0637 16.3758 31.1574 16.3758C30.2417 16.3758 29.3968 16.6067 28.6226 17.0687C28.6192 17.0707 28.6157 17.0727 28.6122 17.0748C28.6112 17.0754 28.6102 17.0759 28.6093 17.0765C27.8414 17.5285 27.2275 18.1402 26.7676 18.9118C26.7629 18.9198 26.7582 18.9278 26.7536 18.9358C26.7533 18.9364 26.7529 18.937 26.7526 18.9376C26.314 19.6985 26.0925 20.5214 26.0879 21.4062C26.0879 21.4154 26.0879 21.4247 26.0879 21.4339C26.0879 22.3246 26.3027 23.154 26.7325 23.9221ZM27.711 19.4447C27.3547 20.0564 27.1771 20.7131 27.1771 21.4339C27.1771 22.165 27.3553 22.832 27.7124 23.4531C28.0838 24.0739 28.5719 24.561 29.1856 24.9281C29.7887 25.2798 30.4344 25.4537 31.1433 25.4537C31.8522 25.4537 32.4978 25.2798 33.1009 24.9281C33.7148 24.5609 34.1973 24.0744 34.559 23.4549L34.5611 23.4514C34.9274 22.8295 35.1094 22.1634 35.1094 21.4339C35.1094 20.7115 34.931 20.0534 34.5732 19.4406C34.2117 18.8216 33.7305 18.3411 33.1193 17.9837L33.1151 17.9813L33.111 17.9788C32.5076 17.6188 31.8636 17.4418 31.1574 17.4418C30.4397 17.4418 29.7912 17.6199 29.1897 17.9788L29.1856 17.9813L29.1814 17.9837C28.5696 18.3415 28.0823 18.8233 27.711 19.4447Z" fill="white"/>
<path fill-rule="evenodd" clip-rule="evenodd" d="M20.1646 15.185H22.8104V25.1765H26.0958V27.7104H20.1646V15.185ZM21.7212 16.251H21.2538V26.6444H25.0065V26.2425H21.7212V16.251Z" fill="white"/>
<path fill-rule="evenodd" clip-rule="evenodd" d="M13.8054 15.185H19.7933V17.7189H16.4513V21.2409H19.241V23.7748H16.4513V25.1765H19.7933V27.7104H13.8054V15.185ZM18.1517 22.7088V22.3069H15.362V16.6529H18.704V16.251H14.8947V26.6444H18.704V26.2425H15.362V22.7088H18.1517Z" fill="white"/>
<path fill-rule="evenodd" clip-rule="evenodd" d="M14.0448 15.185L7.50727 29.4912L0.969727 15.185H3.86511L7.54329 23.2084L11.174 15.185H14.0448ZM12.3644 16.251H11.883L7.54975 25.8268L3.1599 16.251H2.65011L7.50727 26.88L12.3644 16.251Z" fill="white"/>
<path fill-rule="evenodd" clip-rule="evenodd" d="M49.6112 30.9027L3.77783 30.9027V30.2082L49.6112 30.2082V30.9027Z" fill="white"/>
<defs>
<clipPath id="clip0_82_2671">
<rect width="27.7778" height="11.4583" fill="white" transform="translate(12.8057 1.736)"/>
</clipPath>
<clipPath id="clip1_82_2671">
<rect width="6.25" height="6.25" fill="white" transform="translate(37.4578 1.04161)"/>
</clipPath>
</defs>
</svg>
